<mxfile host="Electron" modified="2024-05-29T08:06:41.204Z" agent="Mozilla/5.0 (Windows NT 10.0; Win64; x64) AppleWebKit/537.36 (KHTML, like Gecko) draw.io/24.4.8 Chrome/124.0.6367.207 Electron/30.0.6 Safari/537.36" etag="WoszG17d2yzkb1MTn333" version="24.4.8" type="device">
  <diagram name="Page-1" id="2YBvvXClWsGukQMizWep">
    <mxGraphModel dx="4144" dy="6856" grid="1" gridSize="10" guides="1" tooltips="1" connect="1" arrows="1" fold="1" page="1" pageScale="1" pageWidth="850" pageHeight="1100" math="0" shadow="0">
      <root>
        <mxCell id="0" />
        <mxCell id="1" parent="0" />
        <mxCell id="MSTOUycmmAvGWeu0DwXD-10" style="edgeStyle=orthogonalEdgeStyle;rounded=0;orthogonalLoop=1;jettySize=auto;html=1;entryX=0.938;entryY=1.014;entryDx=0;entryDy=0;entryPerimeter=0;dashed=1;endArrow=none;endFill=0;" edge="1" parent="1" source="MSTOUycmmAvGWeu0DwXD-6" target="GKsZWarWMAWqKfVSIhZm-54">
          <mxGeometry relative="1" as="geometry" />
        </mxCell>
        <mxCell id="GKsZWarWMAWqKfVSIhZm-1" value="Форма авторизации/ регистрации" style="shape=umlLifeline;perimeter=lifelinePerimeter;container=1;collapsible=0;recursiveResize=0;outlineConnect=0;rounded=0;shadow=0;comic=0;labelBackgroundColor=none;strokeWidth=1;fontFamily=Verdana;fontSize=12;align=center;whiteSpace=wrap;html=1;" parent="1" vertex="1">
          <mxGeometry x="329" y="-3464" width="100" height="384" as="geometry" />
        </mxCell>
        <mxCell id="GKsZWarWMAWqKfVSIhZm-2" value="" style="html=1;points=[];perimeter=orthogonalPerimeter;rounded=0;shadow=0;comic=0;labelBackgroundColor=none;strokeWidth=1;fontFamily=Verdana;fontSize=12;align=center;" parent="GKsZWarWMAWqKfVSIhZm-1" vertex="1">
          <mxGeometry x="45" y="100" width="10" height="110" as="geometry" />
        </mxCell>
        <mxCell id="GKsZWarWMAWqKfVSIhZm-3" value="" style="html=1;points=[];perimeter=orthogonalPerimeter;rounded=0;shadow=0;comic=0;labelBackgroundColor=none;strokeWidth=1;fontFamily=Verdana;fontSize=12;align=center;" parent="GKsZWarWMAWqKfVSIhZm-1" vertex="1">
          <mxGeometry x="45" y="240" width="10" height="130" as="geometry" />
        </mxCell>
        <mxCell id="GKsZWarWMAWqKfVSIhZm-6" value="&lt;font face=&quot;Helvetica&quot;&gt;Ввести данные для регистрации&lt;/font&gt;" style="html=1;verticalAlign=bottom;endArrow=block;labelBackgroundColor=none;fontFamily=Verdana;fontSize=12;edgeStyle=elbowEdgeStyle;elbow=vertical;align=left;fontColor=default;" parent="1" edge="1">
          <mxGeometry x="-0.9681" y="5" relative="1" as="geometry">
            <mxPoint x="116" y="-3365" as="sourcePoint" />
            <mxPoint as="offset" />
            <mxPoint x="373" y="-3364" as="targetPoint" />
          </mxGeometry>
        </mxCell>
        <mxCell id="GKsZWarWMAWqKfVSIhZm-7" value="&lt;font face=&quot;Helvetica&quot;&gt;Проверить данные и сохранить&amp;nbsp;&lt;/font&gt;" style="html=1;verticalAlign=bottom;endArrow=block;entryX=0;entryY=0;labelBackgroundColor=none;fontFamily=Verdana;fontSize=12;edgeStyle=elbowEdgeStyle;elbow=horizontal;exitX=1.054;exitY=0.646;exitDx=0;exitDy=0;exitPerimeter=0;fontColor=default;" parent="1" edge="1">
          <mxGeometry x="-0.1959" y="2" relative="1" as="geometry">
            <mxPoint x="384.53999999999905" y="-3328.16" as="sourcePoint" />
            <mxPoint as="offset" />
            <mxPoint x="645.9999999999998" y="-3328.999999999999" as="targetPoint" />
          </mxGeometry>
        </mxCell>
        <mxCell id="GKsZWarWMAWqKfVSIhZm-8" value="&lt;div&gt;&lt;br&gt;&lt;/div&gt;&lt;div&gt;&lt;br&gt;&lt;/div&gt;&lt;div&gt;&lt;br&gt;&lt;/div&gt;&lt;div&gt;&lt;br&gt;&lt;/div&gt;&lt;div&gt;Пользователь&lt;/div&gt;" style="shape=umlLifeline;perimeter=lifelinePerimeter;whiteSpace=wrap;html=1;container=1;dropTarget=0;collapsible=0;recursiveResize=0;outlineConnect=0;portConstraint=eastwest;newEdgeStyle={&quot;curved&quot;:0,&quot;rounded&quot;:0};participant=umlActor;labelBackgroundColor=none;" parent="1" vertex="1">
          <mxGeometry x="101" y="-3467" width="20" height="390" as="geometry" />
        </mxCell>
        <mxCell id="GKsZWarWMAWqKfVSIhZm-9" value="" style="html=1;points=[[0,0,0,0,5],[0,1,0,0,-5],[1,0,0,0,5],[1,1,0,0,-5]];perimeter=orthogonalPerimeter;outlineConnect=0;targetShapes=umlLifeline;portConstraint=eastwest;newEdgeStyle={&quot;curved&quot;:0,&quot;rounded&quot;:0};labelBackgroundColor=none;" parent="GKsZWarWMAWqKfVSIhZm-8" vertex="1">
          <mxGeometry x="5" y="95" width="10" height="285" as="geometry" />
        </mxCell>
        <mxCell id="GKsZWarWMAWqKfVSIhZm-10" value="" style="endArrow=open;html=1;rounded=0;dashed=1;endFill=0;labelBackgroundColor=none;fontColor=default;" parent="1" edge="1">
          <mxGeometry width="50" height="50" relative="1" as="geometry">
            <mxPoint x="641" y="-3286" as="sourcePoint" />
            <mxPoint x="380" y="-3286" as="targetPoint" />
          </mxGeometry>
        </mxCell>
        <mxCell id="GKsZWarWMAWqKfVSIhZm-11" value="&lt;font style=&quot;font-size: 12px;&quot;&gt;ЛК создан&lt;/font&gt;" style="edgeLabel;html=1;align=center;verticalAlign=middle;resizable=0;points=[];labelBackgroundColor=none;" parent="GKsZWarWMAWqKfVSIhZm-10" connectable="0" vertex="1">
          <mxGeometry x="-0.4084" y="1" relative="1" as="geometry">
            <mxPoint x="-137" y="-15" as="offset" />
          </mxGeometry>
        </mxCell>
        <mxCell id="GKsZWarWMAWqKfVSIhZm-14" value="&lt;font face=&quot;Helvetica&quot;&gt;Проверить данные&lt;/font&gt;" style="html=1;verticalAlign=bottom;endArrow=block;labelBackgroundColor=none;fontFamily=Verdana;fontSize=12;edgeStyle=elbowEdgeStyle;elbow=vertical;align=left;fontColor=default;" parent="1" edge="1">
          <mxGeometry x="-0.9376" y="3" relative="1" as="geometry">
            <mxPoint x="384" y="-3185.5" as="sourcePoint" />
            <mxPoint x="645" y="-3185.5" as="targetPoint" />
            <mxPoint as="offset" />
          </mxGeometry>
        </mxCell>
        <mxCell id="GKsZWarWMAWqKfVSIhZm-15" value="" style="endArrow=open;html=1;rounded=0;dashed=1;endFill=0;labelBackgroundColor=none;fontColor=default;" parent="1" edge="1">
          <mxGeometry width="50" height="50" relative="1" as="geometry">
            <mxPoint x="643" y="-3140" as="sourcePoint" />
            <mxPoint x="385" y="-3140" as="targetPoint" />
          </mxGeometry>
        </mxCell>
        <mxCell id="GKsZWarWMAWqKfVSIhZm-16" value="&lt;div style=&quot;&quot;&gt;&lt;span style=&quot;font-size: 12px;&quot;&gt;Данные совпадают&lt;/span&gt;&lt;/div&gt;" style="edgeLabel;html=1;align=left;verticalAlign=middle;resizable=0;points=[];labelBackgroundColor=none;" parent="GKsZWarWMAWqKfVSIhZm-15" connectable="0" vertex="1">
          <mxGeometry x="-0.4084" y="1" relative="1" as="geometry">
            <mxPoint x="-174" y="-19" as="offset" />
          </mxGeometry>
        </mxCell>
        <mxCell id="GKsZWarWMAWqKfVSIhZm-17" value="" style="endArrow=open;html=1;rounded=0;dashed=1;endFill=0;entryX=0.867;entryY=0.677;entryDx=0;entryDy=0;entryPerimeter=0;exitX=0.118;exitY=0.998;exitDx=0;exitDy=0;exitPerimeter=0;labelBackgroundColor=none;fontColor=default;" parent="1" edge="1">
          <mxGeometry width="50" height="50" relative="1" as="geometry">
            <mxPoint x="375.18000000000006" y="-3110" as="sourcePoint" />
            <mxPoint x="114.67000000000007" y="-3109.437" as="targetPoint" />
            <Array as="points">
              <mxPoint x="260" y="-3109.64" />
              <mxPoint x="220" y="-3109.64" />
            </Array>
          </mxGeometry>
        </mxCell>
        <mxCell id="GKsZWarWMAWqKfVSIhZm-18" value="&lt;div style=&quot;text-align: left;&quot;&gt;&lt;span style=&quot;font-size: 12px;&quot;&gt;&lt;font face=&quot;Helvetica&quot;&gt;Подтвердить вход&lt;/font&gt;&lt;/span&gt;&lt;/div&gt;" style="edgeLabel;html=1;align=center;verticalAlign=middle;resizable=0;points=[];labelBackgroundColor=none;" parent="GKsZWarWMAWqKfVSIhZm-17" connectable="0" vertex="1">
          <mxGeometry x="-0.4084" y="1" relative="1" as="geometry">
            <mxPoint x="-106" y="-15" as="offset" />
          </mxGeometry>
        </mxCell>
        <mxCell id="GKsZWarWMAWqKfVSIhZm-19" value="&lt;font face=&quot;Helvetica&quot;&gt;Ввести данные для входа на сайт&lt;/font&gt;" style="html=1;verticalAlign=bottom;endArrow=block;labelBackgroundColor=none;fontFamily=Verdana;fontSize=12;edgeStyle=elbowEdgeStyle;elbow=vertical;align=left;fontColor=default;" parent="1" source="GKsZWarWMAWqKfVSIhZm-9" edge="1">
          <mxGeometry x="-0.8933" y="7" relative="1" as="geometry">
            <mxPoint x="160" y="-3190" as="sourcePoint" />
            <mxPoint x="370" y="-3203" as="targetPoint" />
            <mxPoint as="offset" />
          </mxGeometry>
        </mxCell>
        <mxCell id="GKsZWarWMAWqKfVSIhZm-20" value="&lt;h1&gt;1. Регистрация/авторизация на сайте&lt;/h1&gt;" style="text;html=1;align=center;verticalAlign=middle;whiteSpace=wrap;rounded=0;labelBackgroundColor=none;" parent="1" vertex="1">
          <mxGeometry x="255" y="-3550" width="280" height="30" as="geometry" />
        </mxCell>
        <mxCell id="GKsZWarWMAWqKfVSIhZm-21" value="Alt" style="shape=umlFrame;whiteSpace=wrap;html=1;pointerEvents=0;labelBackgroundColor=none;" parent="1" vertex="1">
          <mxGeometry x="40" y="-3390" width="710" height="330" as="geometry" />
        </mxCell>
        <mxCell id="GKsZWarWMAWqKfVSIhZm-22" value="[Регистрация]" style="text;html=1;align=center;verticalAlign=middle;whiteSpace=wrap;rounded=0;fontSize=10;labelBackgroundColor=none;" parent="1" vertex="1">
          <mxGeometry x="40" y="-3340" width="69" height="30" as="geometry" />
        </mxCell>
        <mxCell id="GKsZWarWMAWqKfVSIhZm-23" value="" style="endArrow=open;html=1;rounded=0;dashed=1;endFill=0;labelBackgroundColor=none;fontColor=default;" parent="1" edge="1">
          <mxGeometry width="50" height="50" relative="1" as="geometry">
            <mxPoint x="382" y="-3260" as="sourcePoint" />
            <mxPoint x="121" y="-3260" as="targetPoint" />
          </mxGeometry>
        </mxCell>
        <mxCell id="GKsZWarWMAWqKfVSIhZm-24" value="&lt;font style=&quot;font-size: 12px;&quot;&gt;Данные для входа&lt;/font&gt;" style="edgeLabel;html=1;align=center;verticalAlign=middle;resizable=0;points=[];labelBackgroundColor=none;" parent="GKsZWarWMAWqKfVSIhZm-23" connectable="0" vertex="1">
          <mxGeometry x="-0.4084" y="1" relative="1" as="geometry">
            <mxPoint x="-94" y="-15" as="offset" />
          </mxGeometry>
        </mxCell>
        <mxCell id="GKsZWarWMAWqKfVSIhZm-25" value="" style="endArrow=none;dashed=1;html=1;rounded=0;entryX=1.001;entryY=0.456;entryDx=0;entryDy=0;entryPerimeter=0;strokeWidth=2;labelBackgroundColor=none;fontColor=default;" parent="1" target="GKsZWarWMAWqKfVSIhZm-21" edge="1">
          <mxGeometry width="50" height="50" relative="1" as="geometry">
            <mxPoint x="40.71" y="-3240" as="sourcePoint" />
            <mxPoint x="750" y="-3266.91" as="targetPoint" />
          </mxGeometry>
        </mxCell>
        <mxCell id="GKsZWarWMAWqKfVSIhZm-26" value="[Авторизация]" style="text;html=1;align=center;verticalAlign=middle;whiteSpace=wrap;rounded=0;fontSize=10;labelBackgroundColor=none;" parent="1" vertex="1">
          <mxGeometry x="40" y="-3200" width="69" height="30" as="geometry" />
        </mxCell>
        <mxCell id="GKsZWarWMAWqKfVSIhZm-27" value="Форма заполнения карточки" style="shape=umlLifeline;perimeter=lifelinePerimeter;container=1;collapsible=0;recursiveResize=0;outlineConnect=0;rounded=0;shadow=0;comic=0;labelBackgroundColor=none;strokeWidth=1;fontFamily=Verdana;fontSize=12;align=center;whiteSpace=wrap;html=1;" parent="1" vertex="1">
          <mxGeometry x="1159" y="-3464" width="100" height="384" as="geometry" />
        </mxCell>
        <mxCell id="GKsZWarWMAWqKfVSIhZm-28" value="" style="html=1;points=[];perimeter=orthogonalPerimeter;rounded=0;shadow=0;comic=0;labelBackgroundColor=none;strokeWidth=1;fontFamily=Verdana;fontSize=12;align=center;" parent="GKsZWarWMAWqKfVSIhZm-27" vertex="1">
          <mxGeometry x="45" y="90" width="10" height="250" as="geometry" />
        </mxCell>
        <mxCell id="GKsZWarWMAWqKfVSIhZm-32" value="&lt;font face=&quot;Helvetica&quot;&gt;Заполнить данные о товаре&amp;nbsp;&lt;/font&gt;" style="html=1;verticalAlign=bottom;endArrow=open;labelBackgroundColor=none;fontFamily=Verdana;fontSize=12;edgeStyle=elbowEdgeStyle;elbow=vertical;align=left;endFill=0;fontColor=default;" parent="1" edge="1">
          <mxGeometry x="-0.9681" y="5" relative="1" as="geometry">
            <mxPoint x="946" y="-3365" as="sourcePoint" />
            <mxPoint as="offset" />
            <mxPoint x="1203" y="-3364" as="targetPoint" />
          </mxGeometry>
        </mxCell>
        <mxCell id="GKsZWarWMAWqKfVSIhZm-33" value="&lt;font face=&quot;Helvetica&quot;&gt;Отправить на проверку&lt;/font&gt;" style="html=1;verticalAlign=bottom;endArrow=block;entryX=0;entryY=0;labelBackgroundColor=none;fontFamily=Verdana;fontSize=12;edgeStyle=elbowEdgeStyle;elbow=horizontal;exitX=1.054;exitY=0.646;exitDx=0;exitDy=0;exitPerimeter=0;fontColor=default;" parent="1" edge="1">
          <mxGeometry x="-0.4246" y="1" relative="1" as="geometry">
            <mxPoint x="1214.539999999999" y="-3299.16" as="sourcePoint" />
            <mxPoint as="offset" />
            <mxPoint x="1475.9999999999998" y="-3299.999999999999" as="targetPoint" />
          </mxGeometry>
        </mxCell>
        <mxCell id="GKsZWarWMAWqKfVSIhZm-34" value="&lt;div&gt;&lt;br&gt;&lt;/div&gt;&lt;div&gt;&lt;br&gt;&lt;/div&gt;&lt;div&gt;&lt;br&gt;&lt;/div&gt;&lt;div&gt;&lt;br&gt;&lt;/div&gt;&lt;div&gt;Автор&lt;/div&gt;" style="shape=umlLifeline;perimeter=lifelinePerimeter;whiteSpace=wrap;html=1;container=1;dropTarget=0;collapsible=0;recursiveResize=0;outlineConnect=0;portConstraint=eastwest;newEdgeStyle={&quot;curved&quot;:0,&quot;rounded&quot;:0};participant=umlActor;labelBackgroundColor=none;" parent="1" vertex="1">
          <mxGeometry x="931" y="-3467" width="20" height="390" as="geometry" />
        </mxCell>
        <mxCell id="GKsZWarWMAWqKfVSIhZm-35" value="" style="html=1;points=[[0,0,0,0,5],[0,1,0,0,-5],[1,0,0,0,5],[1,1,0,0,-5]];perimeter=orthogonalPerimeter;outlineConnect=0;targetShapes=umlLifeline;portConstraint=eastwest;newEdgeStyle={&quot;curved&quot;:0,&quot;rounded&quot;:0};labelBackgroundColor=none;" parent="GKsZWarWMAWqKfVSIhZm-34" vertex="1">
          <mxGeometry x="5" y="95" width="10" height="245" as="geometry" />
        </mxCell>
        <mxCell id="GKsZWarWMAWqKfVSIhZm-39" value="" style="endArrow=open;html=1;rounded=0;dashed=1;endFill=0;labelBackgroundColor=none;fontColor=default;" parent="1" edge="1">
          <mxGeometry width="50" height="50" relative="1" as="geometry">
            <mxPoint x="1678" y="-3240" as="sourcePoint" />
            <mxPoint x="1210" y="-3240" as="targetPoint" />
          </mxGeometry>
        </mxCell>
        <mxCell id="GKsZWarWMAWqKfVSIhZm-40" value="&lt;div style=&quot;&quot;&gt;&lt;span style=&quot;font-size: 12px;&quot;&gt;Карточка сохранена&lt;/span&gt;&lt;/div&gt;" style="edgeLabel;html=1;align=right;verticalAlign=middle;resizable=0;points=[];labelPosition=left;verticalLabelPosition=middle;labelBackgroundColor=none;" parent="GKsZWarWMAWqKfVSIhZm-39" connectable="0" vertex="1">
          <mxGeometry x="-0.4084" y="1" relative="1" as="geometry">
            <mxPoint x="-199" y="-15" as="offset" />
          </mxGeometry>
        </mxCell>
        <mxCell id="GKsZWarWMAWqKfVSIhZm-41" value="" style="endArrow=open;html=1;rounded=0;dashed=1;endFill=0;labelBackgroundColor=none;fontColor=default;" parent="1" edge="1">
          <mxGeometry width="50" height="50" relative="1" as="geometry">
            <mxPoint x="1470" y="-3169.36" as="sourcePoint" />
            <mxPoint x="1210" y="-3169.41" as="targetPoint" />
            <Array as="points">
              <mxPoint x="1366.33" y="-3170" />
            </Array>
          </mxGeometry>
        </mxCell>
        <mxCell id="GKsZWarWMAWqKfVSIhZm-42" value="&lt;div style=&quot;text-align: left;&quot;&gt;&lt;span style=&quot;font-size: 12px;&quot;&gt;&lt;font face=&quot;Helvetica&quot;&gt;Карточка отклонена&lt;/font&gt;&lt;/span&gt;&lt;/div&gt;" style="edgeLabel;html=1;align=center;verticalAlign=middle;resizable=0;points=[];labelBackgroundColor=none;" parent="GKsZWarWMAWqKfVSIhZm-41" connectable="0" vertex="1">
          <mxGeometry x="-0.4084" y="1" relative="1" as="geometry">
            <mxPoint x="-116" y="-16" as="offset" />
          </mxGeometry>
        </mxCell>
        <mxCell id="GKsZWarWMAWqKfVSIhZm-43" value="&lt;font face=&quot;Helvetica&quot;&gt;Информация подтверждена&lt;/font&gt;" style="html=1;verticalAlign=bottom;endArrow=block;labelBackgroundColor=none;fontFamily=Verdana;fontSize=12;edgeStyle=elbowEdgeStyle;elbow=vertical;align=left;fontColor=default;" parent="1" edge="1">
          <mxGeometry x="-0.8933" y="7" relative="1" as="geometry">
            <mxPoint x="1490" y="-3275.5" as="sourcePoint" />
            <mxPoint x="1679.5" y="-3275" as="targetPoint" />
            <mxPoint as="offset" />
            <Array as="points">
              <mxPoint x="1570" y="-3275" />
            </Array>
          </mxGeometry>
        </mxCell>
        <mxCell id="GKsZWarWMAWqKfVSIhZm-44" value="&lt;h1&gt;2. Создание карточки товара&lt;/h1&gt;" style="text;html=1;align=center;verticalAlign=middle;whiteSpace=wrap;rounded=0;labelBackgroundColor=none;" parent="1" vertex="1">
          <mxGeometry x="1085" y="-3550" width="280" height="30" as="geometry" />
        </mxCell>
        <mxCell id="GKsZWarWMAWqKfVSIhZm-51" value="&lt;font face=&quot;Helvetica&quot;&gt;Заполнить данные об авторе&amp;nbsp;&lt;/font&gt;" style="html=1;verticalAlign=bottom;endArrow=open;labelBackgroundColor=none;fontFamily=Verdana;fontSize=12;edgeStyle=elbowEdgeStyle;elbow=vertical;align=left;endFill=0;fontColor=default;" parent="1" source="GKsZWarWMAWqKfVSIhZm-35" edge="1">
          <mxGeometry x="-0.9681" y="5" relative="1" as="geometry">
            <mxPoint x="950" y="-3330" as="sourcePoint" />
            <mxPoint as="offset" />
            <mxPoint x="1207" y="-3329" as="targetPoint" />
            <Array as="points">
              <mxPoint x="950" y="-3329" />
            </Array>
          </mxGeometry>
        </mxCell>
        <mxCell id="GKsZWarWMAWqKfVSIhZm-52" value="&lt;div style=&quot;line-height: 100%;&quot;&gt;Модератор&lt;/div&gt;" style="shape=umlLifeline;perimeter=lifelinePerimeter;whiteSpace=wrap;html=1;container=1;dropTarget=0;collapsible=0;recursiveResize=0;outlineConnect=0;portConstraint=eastwest;newEdgeStyle={&quot;curved&quot;:0,&quot;rounded&quot;:0};participant=umlActor;size=47;verticalAlign=bottom;labelBackgroundColor=none;" parent="1" vertex="1">
          <mxGeometry x="1470" y="-3464" width="20" height="390" as="geometry" />
        </mxCell>
        <mxCell id="GKsZWarWMAWqKfVSIhZm-53" value="" style="html=1;points=[[0,0,0,0,5],[0,1,0,0,-5],[1,0,0,0,5],[1,1,0,0,-5]];perimeter=orthogonalPerimeter;outlineConnect=0;targetShapes=umlLifeline;portConstraint=eastwest;newEdgeStyle={&quot;curved&quot;:0,&quot;rounded&quot;:0};labelBackgroundColor=none;" parent="GKsZWarWMAWqKfVSIhZm-52" vertex="1">
          <mxGeometry x="5" y="95" width="10" height="215" as="geometry" />
        </mxCell>
        <mxCell id="GKsZWarWMAWqKfVSIhZm-54" value="Alt" style="shape=umlFrame;whiteSpace=wrap;html=1;pointerEvents=0;labelBackgroundColor=none;" parent="1" vertex="1">
          <mxGeometry x="860" y="-3390" width="880" height="270" as="geometry" />
        </mxCell>
        <mxCell id="GKsZWarWMAWqKfVSIhZm-55" value="[Карточка создана]" style="text;html=1;align=center;verticalAlign=middle;whiteSpace=wrap;rounded=0;fontSize=10;labelBackgroundColor=none;" parent="1" vertex="1">
          <mxGeometry x="862" y="-3340" width="69" height="30" as="geometry" />
        </mxCell>
        <mxCell id="GKsZWarWMAWqKfVSIhZm-56" value="" style="endArrow=none;dashed=1;html=1;rounded=0;jumpSize=8;strokeWidth=2;labelBackgroundColor=none;fontColor=default;" parent="1" edge="1">
          <mxGeometry width="50" height="50" relative="1" as="geometry">
            <mxPoint x="860" y="-3200" as="sourcePoint" />
            <mxPoint x="1675" y="-3200" as="targetPoint" />
          </mxGeometry>
        </mxCell>
        <mxCell id="GKsZWarWMAWqKfVSIhZm-57" value="[Отправка на доработку]" style="text;html=1;align=center;verticalAlign=middle;whiteSpace=wrap;rounded=0;fontSize=10;labelBackgroundColor=none;" parent="1" vertex="1">
          <mxGeometry x="862" y="-3180" width="69" height="30" as="geometry" />
        </mxCell>
        <mxCell id="GKsZWarWMAWqKfVSIhZm-58" value="" style="endArrow=open;html=1;rounded=0;dashed=1;endFill=0;labelBackgroundColor=none;fontColor=default;" parent="1" edge="1">
          <mxGeometry width="50" height="50" relative="1" as="geometry">
            <mxPoint x="1200" y="-3139.36" as="sourcePoint" />
            <mxPoint x="940" y="-3139.41" as="targetPoint" />
            <Array as="points">
              <mxPoint x="1096.33" y="-3140" />
            </Array>
          </mxGeometry>
        </mxCell>
        <mxCell id="GKsZWarWMAWqKfVSIhZm-59" value="&lt;div style=&quot;text-align: left;&quot;&gt;&lt;span style=&quot;font-size: 12px;&quot;&gt;&lt;font face=&quot;Helvetica&quot;&gt;Карточка отправлена на доработку&lt;/font&gt;&lt;/span&gt;&lt;/div&gt;" style="edgeLabel;html=1;align=center;verticalAlign=middle;resizable=0;points=[];labelBackgroundColor=none;" parent="GKsZWarWMAWqKfVSIhZm-58" connectable="0" vertex="1">
          <mxGeometry x="-0.4084" y="1" relative="1" as="geometry">
            <mxPoint x="-74" y="-16" as="offset" />
          </mxGeometry>
        </mxCell>
        <mxCell id="GKsZWarWMAWqKfVSIhZm-60" value="" style="endArrow=open;html=1;rounded=0;dashed=1;endFill=0;labelBackgroundColor=none;fontColor=default;" parent="1" edge="1">
          <mxGeometry width="50" height="50" relative="1" as="geometry">
            <mxPoint x="1200" y="-3219.36" as="sourcePoint" />
            <mxPoint x="940" y="-3219.41" as="targetPoint" />
            <Array as="points">
              <mxPoint x="1096.33" y="-3220" />
            </Array>
          </mxGeometry>
        </mxCell>
        <mxCell id="GKsZWarWMAWqKfVSIhZm-61" value="&lt;div style=&quot;text-align: left;&quot;&gt;&lt;span style=&quot;font-size: 12px;&quot;&gt;Информация о создании карточки&lt;/span&gt;&lt;/div&gt;" style="edgeLabel;html=1;align=center;verticalAlign=middle;resizable=0;points=[];labelBackgroundColor=none;" parent="GKsZWarWMAWqKfVSIhZm-60" connectable="0" vertex="1">
          <mxGeometry x="-0.4084" y="1" relative="1" as="geometry">
            <mxPoint x="-74" y="-16" as="offset" />
          </mxGeometry>
        </mxCell>
        <mxCell id="GKsZWarWMAWqKfVSIhZm-62" value="&lt;font style=&quot;font-size: 11px;&quot;&gt;Страница оформления подписки&lt;/font&gt;" style="shape=umlLifeline;perimeter=lifelinePerimeter;container=1;collapsible=0;recursiveResize=0;outlineConnect=0;rounded=0;shadow=0;comic=0;labelBackgroundColor=none;strokeWidth=1;fontFamily=Verdana;fontSize=12;align=center;whiteSpace=wrap;html=1;" parent="1" vertex="1">
          <mxGeometry x="2195" y="-3467" width="100" height="393" as="geometry" />
        </mxCell>
        <mxCell id="GKsZWarWMAWqKfVSIhZm-63" value="" style="html=1;points=[];perimeter=orthogonalPerimeter;rounded=0;shadow=0;comic=0;labelBackgroundColor=none;strokeWidth=1;fontFamily=Verdana;fontSize=12;align=center;" parent="GKsZWarWMAWqKfVSIhZm-62" vertex="1">
          <mxGeometry x="45" y="90" width="10" height="150" as="geometry" />
        </mxCell>
        <mxCell id="GKsZWarWMAWqKfVSIhZm-108" value="" style="html=1;points=[];perimeter=orthogonalPerimeter;rounded=0;shadow=0;comic=0;labelBackgroundColor=none;strokeWidth=1;fontFamily=Verdana;fontSize=12;align=center;" parent="GKsZWarWMAWqKfVSIhZm-62" vertex="1">
          <mxGeometry x="45" y="323" width="10" height="70" as="geometry" />
        </mxCell>
        <mxCell id="GKsZWarWMAWqKfVSIhZm-64" value="&lt;span style=&quot;color: rgba(0, 0, 0, 0.85); text-align: start; background-color: rgb(255, 255, 255);&quot;&gt;&lt;font face=&quot;Helvetica&quot; style=&quot;font-size: 12px;&quot;&gt;Корзина&lt;/font&gt;&lt;/span&gt;" style="shape=umlLifeline;perimeter=lifelinePerimeter;whiteSpace=wrap;html=1;container=1;collapsible=0;recursiveResize=0;outlineConnect=0;rounded=0;shadow=0;comic=0;labelBackgroundColor=none;strokeWidth=1;fontFamily=Verdana;fontSize=12;align=center;" parent="1" vertex="1">
          <mxGeometry x="2400" y="-3470" width="100" height="384" as="geometry" />
        </mxCell>
        <mxCell id="GKsZWarWMAWqKfVSIhZm-65" value="" style="html=1;points=[];perimeter=orthogonalPerimeter;rounded=0;shadow=0;comic=0;labelBackgroundColor=none;strokeWidth=1;fontFamily=Verdana;fontSize=12;align=center;" parent="GKsZWarWMAWqKfVSIhZm-64" vertex="1">
          <mxGeometry x="45" y="200" width="10" height="150" as="geometry" />
        </mxCell>
        <mxCell id="GKsZWarWMAWqKfVSIhZm-98" value="" style="endArrow=classic;html=1;rounded=0;labelBackgroundColor=none;fontColor=default;" parent="GKsZWarWMAWqKfVSIhZm-64" edge="1">
          <mxGeometry width="50" height="50" relative="1" as="geometry">
            <mxPoint x="55" y="220.5" as="sourcePoint" />
            <mxPoint x="55" y="260.5" as="targetPoint" />
            <Array as="points">
              <mxPoint x="96" y="220.5" />
              <mxPoint x="96" y="260.5" />
            </Array>
          </mxGeometry>
        </mxCell>
        <mxCell id="GKsZWarWMAWqKfVSIhZm-72" value="" style="endArrow=open;html=1;rounded=0;dashed=1;endFill=0;labelBackgroundColor=none;fontColor=default;" parent="GKsZWarWMAWqKfVSIhZm-64" target="GKsZWarWMAWqKfVSIhZm-69" edge="1">
          <mxGeometry width="50" height="50" relative="1" as="geometry">
            <mxPoint x="45" y="280.6399999999999" as="sourcePoint" />
            <mxPoint x="-149.2199999999998" y="281.4499999999998" as="targetPoint" />
            <Array as="points">
              <mxPoint x="-58.67000000000007" y="280" />
            </Array>
          </mxGeometry>
        </mxCell>
        <mxCell id="GKsZWarWMAWqKfVSIhZm-70" value="" style="endArrow=open;html=1;rounded=0;dashed=1;endFill=0;labelBackgroundColor=none;fontColor=default;" parent="GKsZWarWMAWqKfVSIhZm-64" edge="1">
          <mxGeometry width="50" height="50" relative="1" as="geometry">
            <mxPoint x="248" y="370" as="sourcePoint" />
            <mxPoint x="-150" y="370" as="targetPoint" />
          </mxGeometry>
        </mxCell>
        <mxCell id="GKsZWarWMAWqKfVSIhZm-71" value="&lt;div style=&quot;&quot;&gt;&lt;span style=&quot;font-size: 12px;&quot;&gt;Подтверждение оплаты подписки&lt;/span&gt;&lt;/div&gt;" style="edgeLabel;html=1;align=right;verticalAlign=middle;resizable=0;points=[];labelPosition=left;verticalLabelPosition=middle;labelBackgroundColor=none;" parent="GKsZWarWMAWqKfVSIhZm-70" connectable="0" vertex="1">
          <mxGeometry x="-0.4084" y="1" relative="1" as="geometry">
            <mxPoint x="-90" y="-15" as="offset" />
          </mxGeometry>
        </mxCell>
        <mxCell id="GKsZWarWMAWqKfVSIhZm-67" value="&lt;font face=&quot;Helvetica&quot;&gt;Нажата кнопка &quot;получить доступ к аналитике&quot;&lt;/font&gt;" style="html=1;verticalAlign=bottom;endArrow=block;labelBackgroundColor=none;fontFamily=Verdana;fontSize=12;edgeStyle=elbowEdgeStyle;elbow=horizontal;exitX=1.054;exitY=0.646;exitDx=0;exitDy=0;exitPerimeter=0;fontColor=default;" parent="1" edge="1">
          <mxGeometry x="0.0739" relative="1" as="geometry">
            <mxPoint x="1959.999999999999" y="-3359.16" as="sourcePoint" />
            <mxPoint as="offset" />
            <mxPoint x="2230" y="-3360" as="targetPoint" />
          </mxGeometry>
        </mxCell>
        <mxCell id="GKsZWarWMAWqKfVSIhZm-68" value="&lt;div&gt;&lt;br&gt;&lt;/div&gt;&lt;div&gt;&lt;br&gt;&lt;/div&gt;&lt;div&gt;&lt;br&gt;&lt;/div&gt;&lt;div&gt;&lt;br&gt;&lt;/div&gt;&lt;div&gt;Пользователь&lt;/div&gt;" style="shape=umlLifeline;perimeter=lifelinePerimeter;whiteSpace=wrap;html=1;container=1;dropTarget=0;collapsible=0;recursiveResize=0;outlineConnect=0;portConstraint=eastwest;newEdgeStyle={&quot;curved&quot;:0,&quot;rounded&quot;:0};participant=umlActor;labelBackgroundColor=none;" parent="1" vertex="1">
          <mxGeometry x="1951" y="-3470" width="20" height="550" as="geometry" />
        </mxCell>
        <mxCell id="GKsZWarWMAWqKfVSIhZm-69" value="" style="html=1;points=[[0,0,0,0,5],[0,1,0,0,-5],[1,0,0,0,5],[1,1,0,0,-5]];perimeter=orthogonalPerimeter;outlineConnect=0;targetShapes=umlLifeline;portConstraint=eastwest;newEdgeStyle={&quot;curved&quot;:0,&quot;rounded&quot;:0};labelBackgroundColor=none;" parent="GKsZWarWMAWqKfVSIhZm-68" vertex="1">
          <mxGeometry x="5" y="95" width="10" height="185" as="geometry" />
        </mxCell>
        <mxCell id="GKsZWarWMAWqKfVSIhZm-74" value="&lt;font face=&quot;Helvetica&quot;&gt;Добавить в корзину тариф&lt;/font&gt;" style="html=1;verticalAlign=bottom;endArrow=block;labelBackgroundColor=none;fontFamily=Verdana;fontSize=12;edgeStyle=elbowEdgeStyle;elbow=vertical;align=left;fontColor=default;" parent="1" target="GKsZWarWMAWqKfVSIhZm-62" edge="1">
          <mxGeometry x="-0.8933" y="7" relative="1" as="geometry">
            <mxPoint x="1971" y="-3284" as="sourcePoint" />
            <mxPoint x="2160.5000000000005" y="-3283.5" as="targetPoint" />
            <mxPoint as="offset" />
            <Array as="points">
              <mxPoint x="2051" y="-3283.5" />
            </Array>
          </mxGeometry>
        </mxCell>
        <mxCell id="GKsZWarWMAWqKfVSIhZm-75" value="&lt;h1&gt;3. Оформление подписки на аналитику/ отмена подписки&lt;/h1&gt;" style="text;html=1;align=center;verticalAlign=middle;whiteSpace=wrap;rounded=0;labelBackgroundColor=none;" parent="1" vertex="1">
          <mxGeometry x="2195" y="-3550" width="330" height="30" as="geometry" />
        </mxCell>
        <mxCell id="GKsZWarWMAWqKfVSIhZm-85" value="" style="endArrow=open;html=1;rounded=0;dashed=1;endFill=0;labelBackgroundColor=none;fontColor=default;" parent="1" edge="1">
          <mxGeometry width="50" height="50" relative="1" as="geometry">
            <mxPoint x="2240" y="-3319.36" as="sourcePoint" />
            <mxPoint x="1970" y="-3319" as="targetPoint" />
            <Array as="points">
              <mxPoint x="2136.33" y="-3320" />
            </Array>
          </mxGeometry>
        </mxCell>
        <mxCell id="GKsZWarWMAWqKfVSIhZm-86" value="&lt;div style=&quot;text-align: left;&quot;&gt;&lt;span style=&quot;font-size: 12px;&quot;&gt;Информация о подписке и тарифах&lt;/span&gt;&lt;/div&gt;" style="edgeLabel;html=1;align=center;verticalAlign=middle;resizable=0;points=[];labelBackgroundColor=none;" parent="GKsZWarWMAWqKfVSIhZm-85" connectable="0" vertex="1">
          <mxGeometry x="-0.4084" y="1" relative="1" as="geometry">
            <mxPoint x="-74" y="-16" as="offset" />
          </mxGeometry>
        </mxCell>
        <mxCell id="GKsZWarWMAWqKfVSIhZm-88" value="" style="endArrow=classic;html=1;rounded=0;labelBackgroundColor=none;fontColor=default;" parent="1" edge="1">
          <mxGeometry width="50" height="50" relative="1" as="geometry">
            <mxPoint x="660" y="-3330" as="sourcePoint" />
            <mxPoint x="660" y="-3290" as="targetPoint" />
            <Array as="points">
              <mxPoint x="701" y="-3330" />
              <mxPoint x="701" y="-3290" />
            </Array>
          </mxGeometry>
        </mxCell>
        <mxCell id="GKsZWarWMAWqKfVSIhZm-89" value="Создание ЛК" style="text;html=1;align=center;verticalAlign=middle;whiteSpace=wrap;rounded=0;fontSize=11;labelBackgroundColor=none;" parent="1" vertex="1">
          <mxGeometry x="701" y="-3320" width="49" height="30" as="geometry" />
        </mxCell>
        <mxCell id="GKsZWarWMAWqKfVSIhZm-90" value="" style="rounded=0;whiteSpace=wrap;html=1;labelBackgroundColor=none;" parent="1" vertex="1">
          <mxGeometry x="650" y="-3334" width="10" height="50" as="geometry" />
        </mxCell>
        <mxCell id="GKsZWarWMAWqKfVSIhZm-91" value="&lt;font face=&quot;Helvetica&quot;&gt;Создать заказ&lt;/font&gt;" style="html=1;verticalAlign=bottom;endArrow=block;labelBackgroundColor=none;fontFamily=Verdana;fontSize=12;edgeStyle=elbowEdgeStyle;elbow=vertical;align=left;fontColor=default;" parent="1" target="GKsZWarWMAWqKfVSIhZm-64" edge="1">
          <mxGeometry x="-0.8933" y="7" relative="1" as="geometry">
            <mxPoint x="2250" y="-3255.06" as="sourcePoint" />
            <mxPoint x="2434" y="-3255.06" as="targetPoint" />
            <mxPoint as="offset" />
            <Array as="points">
              <mxPoint x="2240" y="-3255.56" />
            </Array>
          </mxGeometry>
        </mxCell>
        <mxCell id="GKsZWarWMAWqKfVSIhZm-101" value="Информация о стоимости" style="text;html=1;align=center;verticalAlign=middle;resizable=0;points=[];autosize=1;strokeColor=none;fillColor=none;fontSize=11;" parent="1" vertex="1">
          <mxGeometry x="2060" y="-3220" width="160" height="30" as="geometry" />
        </mxCell>
        <mxCell id="GKsZWarWMAWqKfVSIhZm-102" value="&lt;span style=&quot;color: rgba(0, 0, 0, 0.85); text-align: start; background-color: rgb(255, 255, 255);&quot;&gt;&lt;font face=&quot;Helvetica&quot; style=&quot;font-size: 12px;&quot;&gt;Микросервис оплаты&lt;/font&gt;&lt;/span&gt;" style="shape=umlLifeline;perimeter=lifelinePerimeter;whiteSpace=wrap;html=1;container=1;collapsible=0;recursiveResize=0;outlineConnect=0;rounded=0;shadow=0;comic=0;labelBackgroundColor=none;strokeWidth=1;fontFamily=Verdana;fontSize=12;align=center;" parent="1" vertex="1">
          <mxGeometry x="2600" y="-3470" width="100" height="384" as="geometry" />
        </mxCell>
        <mxCell id="GKsZWarWMAWqKfVSIhZm-103" value="" style="html=1;points=[];perimeter=orthogonalPerimeter;rounded=0;shadow=0;comic=0;labelBackgroundColor=none;strokeWidth=1;fontFamily=Verdana;fontSize=12;align=center;" parent="GKsZWarWMAWqKfVSIhZm-102" vertex="1">
          <mxGeometry x="45" y="310" width="10" height="70" as="geometry" />
        </mxCell>
        <mxCell id="GKsZWarWMAWqKfVSIhZm-100" value="Расчёт&amp;nbsp;&lt;div style=&quot;font-size: 11px;&quot;&gt;итоговой стоимости&lt;/div&gt;" style="text;html=1;align=left;verticalAlign=middle;resizable=0;points=[];autosize=1;strokeColor=none;fillColor=none;fontSize=11;spacing=0;" parent="1" vertex="1">
          <mxGeometry x="2500" y="-3249.5" width="120" height="40" as="geometry" />
        </mxCell>
        <mxCell id="GKsZWarWMAWqKfVSIhZm-106" value="&lt;font face=&quot;Helvetica&quot;&gt;Подтверждение оплаты&lt;/font&gt;" style="html=1;verticalAlign=bottom;endArrow=block;labelBackgroundColor=none;fontFamily=Verdana;fontSize=12;edgeStyle=elbowEdgeStyle;elbow=horizontal;exitX=1.054;exitY=0.646;exitDx=0;exitDy=0;exitPerimeter=0;fontColor=default;entryX=0.282;entryY=0.806;entryDx=0;entryDy=0;entryPerimeter=0;" parent="1" target="GKsZWarWMAWqKfVSIhZm-65" edge="1">
          <mxGeometry x="-0.7059" y="1" relative="1" as="geometry">
            <mxPoint x="1969.999999999999" y="-3149.16" as="sourcePoint" />
            <mxPoint as="offset" />
            <mxPoint x="2390" y="-3149" as="targetPoint" />
          </mxGeometry>
        </mxCell>
        <mxCell id="GKsZWarWMAWqKfVSIhZm-107" value="&lt;font face=&quot;Helvetica&quot;&gt;Провести оплату&lt;/font&gt;" style="html=1;verticalAlign=bottom;endArrow=block;labelBackgroundColor=none;fontFamily=Verdana;fontSize=12;edgeStyle=elbowEdgeStyle;elbow=vertical;align=left;fontColor=default;" parent="1" edge="1">
          <mxGeometry x="-0.8933" y="7" relative="1" as="geometry">
            <mxPoint x="2460" y="-3134.68" as="sourcePoint" />
            <mxPoint x="2645" y="-3134.68" as="targetPoint" />
            <mxPoint as="offset" />
            <Array as="points">
              <mxPoint x="2530" y="-3135.18" />
            </Array>
          </mxGeometry>
        </mxCell>
        <mxCell id="GKsZWarWMAWqKfVSIhZm-109" value="" style="endArrow=open;html=1;rounded=0;dashed=1;endFill=0;labelBackgroundColor=none;fontColor=default;" parent="1" target="GKsZWarWMAWqKfVSIhZm-114" edge="1">
          <mxGeometry width="50" height="50" relative="1" as="geometry">
            <mxPoint x="2241" y="-3086.61" as="sourcePoint" />
            <mxPoint x="1971" y="-3086.25" as="targetPoint" />
            <Array as="points">
              <mxPoint x="2137.33" y="-3087.25" />
            </Array>
          </mxGeometry>
        </mxCell>
        <mxCell id="GKsZWarWMAWqKfVSIhZm-110" value="&lt;div style=&quot;&quot;&gt;&lt;span style=&quot;font-size: 12px;&quot;&gt;Заказ отображается в ЛК&lt;/span&gt;&lt;/div&gt;" style="edgeLabel;html=1;align=center;verticalAlign=middle;resizable=0;points=[];labelBackgroundColor=none;" parent="GKsZWarWMAWqKfVSIhZm-109" connectable="0" vertex="1">
          <mxGeometry x="-0.4084" y="1" relative="1" as="geometry">
            <mxPoint x="-30" y="-16" as="offset" />
          </mxGeometry>
        </mxCell>
        <mxCell id="GKsZWarWMAWqKfVSIhZm-111" value="Opt" style="shape=umlFrame;whiteSpace=wrap;html=1;pointerEvents=0;labelBackgroundColor=none;" parent="1" vertex="1">
          <mxGeometry x="1870" y="-3055" width="970" height="140" as="geometry" />
        </mxCell>
        <mxCell id="GKsZWarWMAWqKfVSIhZm-112" value="" style="html=1;points=[];perimeter=orthogonalPerimeter;rounded=0;shadow=0;comic=0;labelBackgroundColor=none;strokeWidth=1;fontFamily=Verdana;fontSize=12;align=center;" parent="1" vertex="1">
          <mxGeometry x="1956" y="-3160" width="10" height="26" as="geometry" />
        </mxCell>
        <mxCell id="GKsZWarWMAWqKfVSIhZm-113" value="&lt;div style=&quot;text-align: start;&quot;&gt;&lt;font face=&quot;Helvetica&quot;&gt;&lt;span style=&quot;background-color: rgb(255, 255, 255);&quot;&gt;Личный кабинет&lt;/span&gt;&lt;/font&gt;&lt;/div&gt;" style="shape=umlLifeline;perimeter=lifelinePerimeter;whiteSpace=wrap;html=1;container=1;collapsible=0;recursiveResize=0;outlineConnect=0;rounded=0;shadow=0;comic=0;labelBackgroundColor=none;strokeWidth=1;fontFamily=Verdana;fontSize=12;align=center;fontColor=#000000;" parent="1" vertex="1">
          <mxGeometry x="2040" y="-3467" width="100" height="547" as="geometry" />
        </mxCell>
        <mxCell id="GKsZWarWMAWqKfVSIhZm-114" value="" style="html=1;points=[];perimeter=orthogonalPerimeter;rounded=0;shadow=0;comic=0;labelBackgroundColor=none;strokeWidth=1;fontFamily=Verdana;fontSize=12;align=center;" parent="GKsZWarWMAWqKfVSIhZm-113" vertex="1">
          <mxGeometry x="45" y="357" width="10" height="50" as="geometry" />
        </mxCell>
        <mxCell id="GKsZWarWMAWqKfVSIhZm-118" value="" style="html=1;points=[];perimeter=orthogonalPerimeter;rounded=0;shadow=0;comic=0;labelBackgroundColor=none;strokeWidth=1;fontFamily=Verdana;fontSize=12;align=center;" parent="GKsZWarWMAWqKfVSIhZm-113" vertex="1">
          <mxGeometry x="45" y="427" width="10" height="103" as="geometry" />
        </mxCell>
        <mxCell id="GKsZWarWMAWqKfVSIhZm-123" value="" style="endArrow=open;html=1;rounded=0;dashed=1;endFill=0;labelBackgroundColor=none;fontColor=default;" parent="GKsZWarWMAWqKfVSIhZm-113" edge="1">
          <mxGeometry width="50" height="50" relative="1" as="geometry">
            <mxPoint x="45" y="517.6399999999999" as="sourcePoint" />
            <mxPoint x="-71" y="517.6199999999999" as="targetPoint" />
            <Array as="points">
              <mxPoint x="-58.67000000000007" y="517" />
            </Array>
          </mxGeometry>
        </mxCell>
        <mxCell id="GKsZWarWMAWqKfVSIhZm-124" value="&lt;div style=&quot;&quot;&gt;&lt;span style=&quot;font-size: 12px;&quot;&gt;Подтверждение&lt;/span&gt;&lt;/div&gt;" style="edgeLabel;html=1;align=center;verticalAlign=middle;resizable=0;points=[];labelBackgroundColor=none;" parent="GKsZWarWMAWqKfVSIhZm-123" connectable="0" vertex="1">
          <mxGeometry x="-0.4084" y="1" relative="1" as="geometry">
            <mxPoint x="-30" y="-16" as="offset" />
          </mxGeometry>
        </mxCell>
        <mxCell id="GKsZWarWMAWqKfVSIhZm-115" value="" style="html=1;points=[];perimeter=orthogonalPerimeter;rounded=0;shadow=0;comic=0;labelBackgroundColor=none;strokeWidth=1;fontFamily=Verdana;fontSize=12;align=center;" parent="1" vertex="1">
          <mxGeometry x="1956" y="-3030" width="10" height="90" as="geometry" />
        </mxCell>
        <mxCell id="GKsZWarWMAWqKfVSIhZm-119" value="&lt;font face=&quot;Helvetica&quot;&gt;Вход в ЛК&lt;/font&gt;" style="html=1;verticalAlign=bottom;endArrow=block;labelBackgroundColor=none;fontFamily=Verdana;fontSize=12;edgeStyle=elbowEdgeStyle;elbow=vertical;align=left;fontColor=default;" parent="1" edge="1">
          <mxGeometry x="-0.747" y="3" relative="1" as="geometry">
            <mxPoint x="1966" y="-3017.62" as="sourcePoint" />
            <mxPoint x="2080" y="-3017" as="targetPoint" />
            <mxPoint x="-1" as="offset" />
            <Array as="points">
              <mxPoint x="2046" y="-3017.12" />
            </Array>
          </mxGeometry>
        </mxCell>
        <mxCell id="GKsZWarWMAWqKfVSIhZm-120" value="&lt;font face=&quot;Helvetica&quot;&gt;Отменить подписку&lt;/font&gt;" style="html=1;verticalAlign=bottom;endArrow=block;labelBackgroundColor=none;fontFamily=Verdana;fontSize=12;edgeStyle=elbowEdgeStyle;elbow=vertical;align=left;endFill=1;fontColor=default;" parent="1" edge="1">
          <mxGeometry x="-0.9681" y="5" relative="1" as="geometry">
            <mxPoint x="1966" y="-2990" as="sourcePoint" />
            <mxPoint as="offset" />
            <mxPoint x="2080" y="-2989" as="targetPoint" />
          </mxGeometry>
        </mxCell>
        <mxCell id="GKsZWarWMAWqKfVSIhZm-121" value="Отмена подписки" style="text;html=1;align=center;verticalAlign=middle;whiteSpace=wrap;rounded=0;" parent="1" vertex="1">
          <mxGeometry x="1880" y="-3000" width="60" height="30" as="geometry" />
        </mxCell>
        <mxCell id="MSTOUycmmAvGWeu0DwXD-1" value="&lt;div style=&quot;font-size: 11px;&quot;&gt;&lt;font style=&quot;font-size: 11px;&quot;&gt;&lt;br&gt;&lt;/font&gt;&lt;/div&gt;&lt;font style=&quot;font-size: 11px;&quot;&gt;БД пользователей&lt;/font&gt;" style="strokeWidth=2;html=1;shape=mxgraph.flowchart.database;whiteSpace=wrap;" vertex="1" parent="1">
          <mxGeometry x="605" y="-3480" width="80" height="70" as="geometry" />
        </mxCell>
        <mxCell id="GKsZWarWMAWqKfVSIhZm-5" value="" style="html=1;points=[];perimeter=orthogonalPerimeter;rounded=0;shadow=0;comic=0;labelBackgroundColor=none;strokeWidth=1;fontFamily=Verdana;fontSize=12;align=center;" parent="1" vertex="1">
          <mxGeometry x="640" y="-3354" width="10" height="220" as="geometry" />
        </mxCell>
        <mxCell id="MSTOUycmmAvGWeu0DwXD-5" style="edgeStyle=orthogonalEdgeStyle;rounded=0;orthogonalLoop=1;jettySize=auto;html=1;entryX=0.853;entryY=1.012;entryDx=0;entryDy=0;entryPerimeter=0;dashed=1;endArrow=none;endFill=0;" edge="1" parent="1" source="MSTOUycmmAvGWeu0DwXD-1" target="GKsZWarWMAWqKfVSIhZm-21">
          <mxGeometry relative="1" as="geometry" />
        </mxCell>
        <mxCell id="MSTOUycmmAvGWeu0DwXD-6" value="&lt;div style=&quot;font-size: 11px;&quot;&gt;&lt;font style=&quot;font-size: 11px;&quot;&gt;&lt;br&gt;&lt;/font&gt;&lt;/div&gt;&lt;font style=&quot;font-size: 11px;&quot;&gt;БД товаров&lt;/font&gt;" style="strokeWidth=2;html=1;shape=mxgraph.flowchart.database;whiteSpace=wrap;" vertex="1" parent="1">
          <mxGeometry x="1650" y="-3470" width="70" height="60" as="geometry" />
        </mxCell>
        <mxCell id="GKsZWarWMAWqKfVSIhZm-31" value="" style="html=1;points=[];perimeter=orthogonalPerimeter;rounded=0;shadow=0;comic=0;labelBackgroundColor=none;strokeWidth=1;fontFamily=Verdana;fontSize=12;align=center;" parent="1" vertex="1">
          <mxGeometry x="1680" y="-3310" width="10" height="90" as="geometry" />
        </mxCell>
        <mxCell id="MSTOUycmmAvGWeu0DwXD-12" style="edgeStyle=orthogonalEdgeStyle;rounded=0;orthogonalLoop=1;jettySize=auto;html=1;endArrow=none;endFill=0;dashed=1;" edge="1" parent="1" source="MSTOUycmmAvGWeu0DwXD-14">
          <mxGeometry relative="1" as="geometry">
            <mxPoint x="2805" y="-2900" as="targetPoint" />
          </mxGeometry>
        </mxCell>
        <mxCell id="MSTOUycmmAvGWeu0DwXD-11" value="&lt;div style=&quot;font-size: 11px;&quot;&gt;&lt;font style=&quot;font-size: 11px;&quot;&gt;&lt;br&gt;&lt;/font&gt;&lt;/div&gt;&lt;font style=&quot;font-size: 11px;&quot;&gt;БД аналитики&lt;/font&gt;" style="strokeWidth=2;html=1;shape=mxgraph.flowchart.database;whiteSpace=wrap;" vertex="1" parent="1">
          <mxGeometry x="2770" y="-3480" width="70" height="60" as="geometry" />
        </mxCell>
        <mxCell id="MSTOUycmmAvGWeu0DwXD-13" value="&lt;font face=&quot;Helvetica&quot;&gt;Удалить подписку пользователя из БД&lt;/font&gt;" style="html=1;verticalAlign=bottom;endArrow=block;labelBackgroundColor=none;fontFamily=Verdana;fontSize=12;edgeStyle=elbowEdgeStyle;elbow=vertical;align=left;endFill=1;fontColor=default;entryX=-0.018;entryY=0.461;entryDx=0;entryDy=0;entryPerimeter=0;" edge="1" parent="1" target="MSTOUycmmAvGWeu0DwXD-14">
          <mxGeometry x="-0.9681" y="5" relative="1" as="geometry">
            <mxPoint x="2100" y="-2978" as="sourcePoint" />
            <mxPoint as="offset" />
            <mxPoint x="2790" y="-2979" as="targetPoint" />
          </mxGeometry>
        </mxCell>
        <mxCell id="MSTOUycmmAvGWeu0DwXD-15" value="" style="edgeStyle=orthogonalEdgeStyle;rounded=0;orthogonalLoop=1;jettySize=auto;html=1;endArrow=none;endFill=0;dashed=1;" edge="1" parent="1" source="MSTOUycmmAvGWeu0DwXD-19" target="MSTOUycmmAvGWeu0DwXD-14">
          <mxGeometry relative="1" as="geometry">
            <mxPoint x="2805" y="-2900" as="targetPoint" />
            <mxPoint x="2805" y="-3420" as="sourcePoint" />
          </mxGeometry>
        </mxCell>
        <mxCell id="MSTOUycmmAvGWeu0DwXD-14" value="" style="html=1;points=[];perimeter=orthogonalPerimeter;rounded=0;shadow=0;comic=0;labelBackgroundColor=none;strokeWidth=1;fontFamily=Verdana;fontSize=12;align=center;" vertex="1" parent="1">
          <mxGeometry x="2800" y="-3010" width="10" height="70" as="geometry" />
        </mxCell>
        <mxCell id="MSTOUycmmAvGWeu0DwXD-16" value="" style="endArrow=open;html=1;rounded=0;dashed=1;endFill=0;labelBackgroundColor=none;fontColor=default;entryX=0.988;entryY=0.76;entryDx=0;entryDy=0;entryPerimeter=0;" edge="1" parent="1" target="GKsZWarWMAWqKfVSIhZm-118">
          <mxGeometry width="50" height="50" relative="1" as="geometry">
            <mxPoint x="2800" y="-2959.36" as="sourcePoint" />
            <mxPoint x="2684" y="-2959.38" as="targetPoint" />
            <Array as="points">
              <mxPoint x="2696.33" y="-2960" />
            </Array>
          </mxGeometry>
        </mxCell>
        <mxCell id="MSTOUycmmAvGWeu0DwXD-17" value="&lt;div style=&quot;&quot;&gt;&lt;span style=&quot;font-size: 12px;&quot;&gt;Ответное сообщение&lt;/span&gt;&lt;/div&gt;" style="edgeLabel;html=1;align=center;verticalAlign=middle;resizable=0;points=[];labelBackgroundColor=none;" connectable="0" vertex="1" parent="MSTOUycmmAvGWeu0DwXD-16">
          <mxGeometry x="-0.4084" y="1" relative="1" as="geometry">
            <mxPoint x="-422" y="-11" as="offset" />
          </mxGeometry>
        </mxCell>
        <mxCell id="MSTOUycmmAvGWeu0DwXD-18" value="&lt;font face=&quot;Helvetica&quot;&gt;Передать инфо&amp;nbsp;&lt;/font&gt;&lt;div&gt;&lt;font face=&quot;Helvetica&quot;&gt;о подписке&lt;/font&gt;&lt;/div&gt;" style="html=1;verticalAlign=bottom;endArrow=block;labelBackgroundColor=none;fontFamily=Verdana;fontSize=12;edgeStyle=elbowEdgeStyle;elbow=vertical;align=left;fontColor=default;entryX=-0.018;entryY=0.482;entryDx=0;entryDy=0;entryPerimeter=0;" edge="1" parent="1">
          <mxGeometry x="-0.8598" relative="1" as="geometry">
            <mxPoint x="2660.18" y="-3119.74" as="sourcePoint" />
            <mxPoint x="2800.0000000000005" y="-3120" as="targetPoint" />
            <mxPoint as="offset" />
            <Array as="points">
              <mxPoint x="2700.18" y="-3119.74" />
              <mxPoint x="2700.18" y="-3119.74" />
              <mxPoint x="2695.18" y="-3119.74" />
            </Array>
          </mxGeometry>
        </mxCell>
        <mxCell id="MSTOUycmmAvGWeu0DwXD-20" value="" style="edgeStyle=orthogonalEdgeStyle;rounded=0;orthogonalLoop=1;jettySize=auto;html=1;endArrow=none;endFill=0;dashed=1;" edge="1" parent="1" source="MSTOUycmmAvGWeu0DwXD-11" target="MSTOUycmmAvGWeu0DwXD-19">
          <mxGeometry relative="1" as="geometry">
            <mxPoint x="2805" y="-3010" as="targetPoint" />
            <mxPoint x="2805" y="-3420" as="sourcePoint" />
          </mxGeometry>
        </mxCell>
        <mxCell id="MSTOUycmmAvGWeu0DwXD-19" value="" style="html=1;points=[];perimeter=orthogonalPerimeter;rounded=0;shadow=0;comic=0;labelBackgroundColor=none;strokeWidth=1;fontFamily=Verdana;fontSize=12;align=center;" vertex="1" parent="1">
          <mxGeometry x="2800" y="-3164" width="10" height="70" as="geometry" />
        </mxCell>
        <mxCell id="MSTOUycmmAvGWeu0DwXD-21" value="&lt;h1&gt;4. Получение аналитики о товаре&lt;/h1&gt;" style="text;html=1;align=center;verticalAlign=middle;whiteSpace=wrap;rounded=0;labelBackgroundColor=none;" vertex="1" parent="1">
          <mxGeometry x="3260" y="-3540" width="330" height="30" as="geometry" />
        </mxCell>
        <mxCell id="MSTOUycmmAvGWeu0DwXD-22" value="&lt;div&gt;&lt;br&gt;&lt;/div&gt;&lt;div&gt;&lt;br&gt;&lt;/div&gt;&lt;div&gt;&lt;br&gt;&lt;/div&gt;&lt;div&gt;&lt;br&gt;&lt;/div&gt;&lt;div&gt;Пользователь&lt;/div&gt;" style="shape=umlLifeline;perimeter=lifelinePerimeter;whiteSpace=wrap;html=1;container=1;dropTarget=0;collapsible=0;recursiveResize=0;outlineConnect=0;portConstraint=eastwest;newEdgeStyle={&quot;curved&quot;:0,&quot;rounded&quot;:0};participant=umlActor;labelBackgroundColor=none;" vertex="1" parent="1">
          <mxGeometry x="3210" y="-3470" width="20" height="280" as="geometry" />
        </mxCell>
        <mxCell id="MSTOUycmmAvGWeu0DwXD-23" value="" style="html=1;points=[[0,0,0,0,5],[0,1,0,0,-5],[1,0,0,0,5],[1,1,0,0,-5]];perimeter=orthogonalPerimeter;outlineConnect=0;targetShapes=umlLifeline;portConstraint=eastwest;newEdgeStyle={&quot;curved&quot;:0,&quot;rounded&quot;:0};labelBackgroundColor=none;" vertex="1" parent="MSTOUycmmAvGWeu0DwXD-22">
          <mxGeometry x="5" y="95" width="10" height="155" as="geometry" />
        </mxCell>
        <mxCell id="MSTOUycmmAvGWeu0DwXD-24" value="&lt;font style=&quot;font-size: 11px;&quot;&gt;Карточка товара/автора&lt;/font&gt;" style="shape=umlLifeline;perimeter=lifelinePerimeter;container=1;collapsible=0;recursiveResize=0;outlineConnect=0;rounded=0;shadow=0;comic=0;labelBackgroundColor=none;strokeWidth=1;fontFamily=Verdana;fontSize=12;align=center;whiteSpace=wrap;html=1;" vertex="1" parent="1">
          <mxGeometry x="3380" y="-3461.5" width="100" height="261.5" as="geometry" />
        </mxCell>
        <mxCell id="MSTOUycmmAvGWeu0DwXD-25" value="" style="html=1;points=[];perimeter=orthogonalPerimeter;rounded=0;shadow=0;comic=0;labelBackgroundColor=none;strokeWidth=1;fontFamily=Verdana;fontSize=12;align=center;" vertex="1" parent="MSTOUycmmAvGWeu0DwXD-24">
          <mxGeometry x="45" y="90" width="10" height="150" as="geometry" />
        </mxCell>
        <mxCell id="MSTOUycmmAvGWeu0DwXD-27" value="&lt;font face=&quot;Helvetica&quot;&gt;Войти в карточку&lt;/font&gt;" style="html=1;verticalAlign=bottom;endArrow=block;labelBackgroundColor=none;fontFamily=Verdana;fontSize=12;edgeStyle=elbowEdgeStyle;elbow=vertical;align=left;fontColor=default;" edge="1" parent="1" target="MSTOUycmmAvGWeu0DwXD-24">
          <mxGeometry x="-0.8598" relative="1" as="geometry">
            <mxPoint x="3230" y="-3349.74" as="sourcePoint" />
            <mxPoint x="3369.8200000000006" y="-3350" as="targetPoint" />
            <mxPoint as="offset" />
            <Array as="points">
              <mxPoint x="3270" y="-3349.74" />
              <mxPoint x="3270" y="-3349.74" />
              <mxPoint x="3265" y="-3349.74" />
            </Array>
          </mxGeometry>
        </mxCell>
        <mxCell id="MSTOUycmmAvGWeu0DwXD-28" value="&lt;font face=&quot;Helvetica&quot;&gt;Получить доступ к аналитике&lt;/font&gt;" style="html=1;verticalAlign=bottom;endArrow=open;labelBackgroundColor=none;fontFamily=Verdana;fontSize=12;edgeStyle=elbowEdgeStyle;elbow=vertical;align=left;fontColor=default;endFill=0;" edge="1" parent="1">
          <mxGeometry x="-0.8598" relative="1" as="geometry">
            <mxPoint x="3230" y="-3320" as="sourcePoint" />
            <mxPoint x="3430" y="-3320" as="targetPoint" />
            <mxPoint as="offset" />
            <Array as="points">
              <mxPoint x="3260" y="-3319.74" />
              <mxPoint x="3260" y="-3319.74" />
              <mxPoint x="3255" y="-3319.74" />
            </Array>
          </mxGeometry>
        </mxCell>
        <mxCell id="MSTOUycmmAvGWeu0DwXD-30" value="&lt;font face=&quot;Helvetica&quot;&gt;Запросить информацию&lt;/font&gt;" style="html=1;verticalAlign=bottom;endArrow=block;labelBackgroundColor=none;fontFamily=Verdana;fontSize=12;edgeStyle=elbowEdgeStyle;elbow=vertical;align=left;fontColor=default;" edge="1" parent="1">
          <mxGeometry x="-0.8598" relative="1" as="geometry">
            <mxPoint x="3440" y="-3301" as="sourcePoint" />
            <mxPoint x="3600" y="-3301" as="targetPoint" />
            <mxPoint as="offset" />
            <Array as="points">
              <mxPoint x="3470" y="-3300.74" />
              <mxPoint x="3470" y="-3300.74" />
              <mxPoint x="3465" y="-3300.74" />
            </Array>
          </mxGeometry>
        </mxCell>
        <mxCell id="MSTOUycmmAvGWeu0DwXD-34" value="" style="group" vertex="1" connectable="0" parent="1">
          <mxGeometry x="3570" y="-3470" width="70" height="270" as="geometry" />
        </mxCell>
        <mxCell id="MSTOUycmmAvGWeu0DwXD-31" style="edgeStyle=orthogonalEdgeStyle;rounded=0;orthogonalLoop=1;jettySize=auto;html=1;endArrow=none;endFill=0;dashed=1;" edge="1" parent="MSTOUycmmAvGWeu0DwXD-34" source="MSTOUycmmAvGWeu0DwXD-32">
          <mxGeometry relative="1" as="geometry">
            <mxPoint x="35" y="270" as="targetPoint" />
          </mxGeometry>
        </mxCell>
        <mxCell id="MSTOUycmmAvGWeu0DwXD-29" value="&lt;div style=&quot;font-size: 11px;&quot;&gt;&lt;font style=&quot;font-size: 11px;&quot;&gt;&lt;br&gt;&lt;/font&gt;&lt;/div&gt;&lt;font style=&quot;font-size: 11px;&quot;&gt;БД аналитики&lt;/font&gt;" style="strokeWidth=2;html=1;shape=mxgraph.flowchart.database;whiteSpace=wrap;" vertex="1" parent="MSTOUycmmAvGWeu0DwXD-34">
          <mxGeometry width="70" height="36.40449438202248" as="geometry" />
        </mxCell>
        <mxCell id="MSTOUycmmAvGWeu0DwXD-33" value="" style="edgeStyle=orthogonalEdgeStyle;rounded=0;orthogonalLoop=1;jettySize=auto;html=1;endArrow=none;endFill=0;dashed=1;" edge="1" parent="MSTOUycmmAvGWeu0DwXD-34" source="MSTOUycmmAvGWeu0DwXD-29" target="MSTOUycmmAvGWeu0DwXD-32">
          <mxGeometry relative="1" as="geometry">
            <mxPoint x="35" y="270" as="targetPoint" />
            <mxPoint x="35" y="36.40449438202248" as="sourcePoint" />
          </mxGeometry>
        </mxCell>
        <mxCell id="MSTOUycmmAvGWeu0DwXD-32" value="" style="html=1;points=[];perimeter=orthogonalPerimeter;rounded=0;shadow=0;comic=0;labelBackgroundColor=none;strokeWidth=1;fontFamily=Verdana;fontSize=12;align=center;" vertex="1" parent="MSTOUycmmAvGWeu0DwXD-34">
          <mxGeometry x="30" y="87.06741573033709" width="10" height="42.47191011235955" as="geometry" />
        </mxCell>
        <mxCell id="MSTOUycmmAvGWeu0DwXD-35" value="" style="endArrow=open;html=1;rounded=0;dashed=1;endFill=0;labelBackgroundColor=none;fontColor=default;" edge="1" parent="1" target="MSTOUycmmAvGWeu0DwXD-24">
          <mxGeometry width="50" height="50" relative="1" as="geometry">
            <mxPoint x="3600" y="-3269.36" as="sourcePoint" />
            <mxPoint x="3484" y="-3269.38" as="targetPoint" />
            <Array as="points">
              <mxPoint x="3496.33" y="-3270" />
            </Array>
          </mxGeometry>
        </mxCell>
        <mxCell id="MSTOUycmmAvGWeu0DwXD-36" value="&lt;div style=&quot;&quot;&gt;&lt;span style=&quot;font-size: 12px;&quot;&gt;Вернуть ответ&lt;/span&gt;&lt;/div&gt;" style="edgeLabel;html=1;align=center;verticalAlign=middle;resizable=0;points=[];labelBackgroundColor=none;" connectable="0" vertex="1" parent="MSTOUycmmAvGWeu0DwXD-35">
          <mxGeometry x="-0.4084" y="1" relative="1" as="geometry">
            <mxPoint x="-69" y="-14" as="offset" />
          </mxGeometry>
        </mxCell>
        <mxCell id="MSTOUycmmAvGWeu0DwXD-37" value="" style="endArrow=open;html=1;rounded=0;dashed=1;endFill=0;labelBackgroundColor=none;fontColor=default;" edge="1" parent="1" target="MSTOUycmmAvGWeu0DwXD-22">
          <mxGeometry width="50" height="50" relative="1" as="geometry">
            <mxPoint x="3421" y="-3247.4500000000003" as="sourcePoint" />
            <mxPoint x="3250" y="-3248.09" as="targetPoint" />
            <Array as="points">
              <mxPoint x="3317.33" y="-3248.09" />
            </Array>
          </mxGeometry>
        </mxCell>
        <mxCell id="MSTOUycmmAvGWeu0DwXD-38" value="&lt;div style=&quot;&quot;&gt;&lt;span style=&quot;font-size: 12px;&quot;&gt;Вывести аналитику&lt;/span&gt;&lt;/div&gt;" style="edgeLabel;html=1;align=center;verticalAlign=middle;resizable=0;points=[];labelBackgroundColor=none;" connectable="0" vertex="1" parent="MSTOUycmmAvGWeu0DwXD-37">
          <mxGeometry x="-0.4084" y="1" relative="1" as="geometry">
            <mxPoint x="-69" y="-14" as="offset" />
          </mxGeometry>
        </mxCell>
      </root>
    </mxGraphModel>
  </diagram>
</mxfile>
